<?xml version="1.0" encoding="utf-8"?>
<!-- Generator: Adobe Illustrator 28.1.0, SVG Export Plug-In . SVG Version: 6.00 Build 0)  -->
<svg version="1.1" xmlns="http://www.w3.org/2000/svg" xmlns:xlink="http://www.w3.org/1999/xlink" x="0px" y="0px"
	 viewBox="0 0 82 24" style="enable-background:new 0 0 82 24;" xml:space="preserve">
<style type="text/css">
	.st0{display:none;}
	.st1{fill:#FFFFFF;}
</style>
<g id="Background-screenshot" class="st0">
	
		<image style="display:inline;overflow:visible;opacity:0.5;" width="2788" height="1248" xlink:href="../../../Screenshot 2024-01-15 at 20.05.05.png"  transform="matrix(2.701440e-02 0 0 2.701440e-02 136 -6)">
	</image>
</g>
<g id="Logo">
	<g>
		<polygon points="1.9,2 1.9,22 28.9,22 28.9,12.2 47.9,12.2 47.9,2 		"/>
		<g>
			<path class="st1" d="M3.7,21.1V13h1.1V17L8.6,13h1.3l-3.3,3.3l3.4,4.8H8.8l-2.9-4l-1.2,1.2v2.8H3.7z"/>
			<path class="st1" d="M11.2,21.1V13h1.1v8.1H11.2z"/>
			<path class="st1" d="M14,21.1V13h5.7V14h-4.6v2.5h4v0.9h-4v2.8h4.7v0.9H14z"/>
			<path class="st1" d="M20.4,21.1v-1l5.1-6.2h-4.7V13h5.9v1l-5.1,6.2h5.3v0.9H20.4z"/>
		</g>
		<g>
			<path class="st1" d="M17.1,11.1V3h3.8c0.9,0,1.6,0.2,2,0.7c0.4,0.4,0.5,0.8,0.5,1.4c0,0.4-0.1,0.8-0.3,1.1
				c-0.2,0.3-0.5,0.5-0.9,0.6v0c1,0.2,1.4,0.9,1.4,2.1c0,0.5-0.1,1-0.4,1.3c-0.4,0.6-1.1,0.9-2,0.9H17.1z M18.2,4v2.5h2.5
				c1.1,0,1.7-0.4,1.7-1.3c0-0.5-0.2-0.9-0.5-1.1C21.6,4,21.2,4,20.6,4H18.2z M18.2,7.4v2.8h2.9c1,0,1.5-0.4,1.5-1.3
				c0-0.6-0.2-1.1-0.6-1.3c-0.3-0.1-0.7-0.2-1.3-0.2H18.2z"/>
			<path class="st1" d="M24.9,11.1V3h5.7V4H26v2.5h4v0.9h-4v2.8h4.7v0.9H24.9z"/>
			<path class="st1" d="M31.9,11.1V3h3.7c0.7,0,1.3,0.2,1.8,0.5c0.5,0.4,0.8,1,0.8,1.9c0,1.3-0.6,2.1-1.9,2.3l2.2,3.5h-1.3L35,7.7
				H33v3.4H31.9z M33,4v2.8h2.4c1.1,0,1.7-0.5,1.7-1.4c0-0.9-0.6-1.4-1.7-1.4H33z"/>
			<path class="st1" d="M46.2,11.2V10h0c-0.6,0.9-1.6,1.3-2.9,1.3c-1.3,0-2.3-0.4-3-1.2c-0.7-0.8-1.1-1.8-1.1-3.1
				c0-1.1,0.4-2.1,1.1-2.9c0.8-0.9,1.8-1.3,3-1.3c0.9,0,1.7,0.2,2.3,0.6c0.7,0.4,1.2,1,1.5,1.8l-1.1,0.3c-0.4-1.2-1.3-1.7-2.7-1.7
				c-0.9,0-1.6,0.3-2.1,1c-0.5,0.6-0.8,1.4-0.8,2.3c0,1,0.2,1.8,0.7,2.4c0.5,0.7,1.3,1,2.2,1c0.9,0,1.6-0.2,2.1-0.7
				c0.5-0.5,0.8-1.1,0.8-2h-2.8V6.9h3.8v4.3H46.2z"/>
			<path d="M48.8,11.1V3h1.4l2.5,6.6L55.2,3h1.4v8.1h-1.1V4.6l0,0l-2.4,6.6h-0.9l-2.4-6.6l0,0v6.5H48.8z"/>
			<path d="M57.6,11.1L60.7,3h1.1l2.9,8.1h-1.1l-0.9-2.5h-3.1l-0.9,2.5H57.6z M62.4,7.7l-1.2-3.4h0L60,7.7H62.4z"/>
			<path d="M65.7,11.1V3h1.1l4.3,6.4l0,0V3h1v8.1H71l-4.3-6.4l0,0v6.4H65.7z"/>
			<path d="M73.7,11.1V3h1.1l4.3,6.4l0,0V3h1v8.1h-1.1l-4.3-6.4l0,0v6.4H73.7z"/>
		</g>
	</g>
</g>
</svg>
